<svg width="556" height="557" xmlns="http://www.w3.org/2000/svg" xmlns:xlink="http://www.w3.org/1999/xlink" xml:space="preserve" overflow="hidden"><g transform="translate(-68 -81)"><g><g><g><g><path d="M185.015 277.5C185.015 226.416 226.416 184.993 277.5 184.993 328.584 184.993 370.007 226.416 370.007 277.5 370.007 328.584 328.584 370.007 277.5 370.007 226.416 370.007 185.015 328.584 185.015 277.5M135.007 277.5C135.007 356.2 198.8 419.993 277.5 419.993 356.2 419.993 419.993 356.2 419.993 277.5 419.993 198.8 356.2 135.007 277.5 135.007 198.8 135.007 135.007 198.8 135.007 277.5M392.333 129.358C392.333 147.738 407.239 162.667 425.642 162.667 444.022 162.667 458.951 147.738 458.951 129.358 458.951 110.978 444.045 96.0715 425.642 96.0715 407.239 96.0715 392.333 110.978 392.333 129.358M165.379 503.378C138.324 502.145 123.62 497.64 113.847 493.829 100.891 488.786 91.6557 482.778 81.9275 473.073 72.2217 463.367 66.192 454.132 61.171 441.176 57.3605 431.403 52.855 416.698 51.6222 389.643 50.2773 360.391 50.0083 351.605 50.0083 277.5 50.0083 203.395 50.2997 194.631 51.6222 165.357 52.855 138.302 57.3829 123.62 61.171 113.824 66.2145 100.868 72.2217 91.6333 81.9275 81.9051 91.6333 72.1993 100.868 66.1696 113.847 61.1486 123.62 57.338 138.324 52.8326 165.379 51.5998 194.631 50.2548 203.418 49.9859 277.5 49.9859 351.605 49.9859 360.369 50.2773 389.643 51.5998 416.698 52.8326 431.38 57.3605 441.176 61.1486 454.132 66.1696 463.367 72.1993 473.095 81.9051 482.801 91.6109 488.808 100.868 493.851 113.824 497.662 123.597 502.167 138.302 503.4 165.357 504.745 194.631 505.014 203.395 505.014 277.5 505.014 351.582 504.745 360.369 503.4 389.643 502.167 416.698 497.64 431.403 493.851 441.176 488.808 454.132 482.801 463.367 473.095 473.073 463.389 482.778 454.132 488.786 441.176 493.829 431.403 497.64 416.698 502.145 389.643 503.378 360.391 504.723 351.605 504.992 277.5 504.992 203.418 504.992 194.631 504.723 165.379 503.378M163.093 1.68114C133.55 3.02605 113.376 7.71082 95.7353 14.5699 77.4893 21.6531 62.0228 31.1571 46.5788 46.5788 31.1571 62.0004 21.6531 77.4669 14.5699 95.7353 7.71082 113.376 3.02605 133.55 1.68114 163.093 0.313813 192.681 0 202.14 0 277.5 0 352.86 0.313813 362.319 1.68114 391.907 3.02605 421.45 7.71082 441.624 14.5699 459.265 21.6531 477.511 31.1347 493 46.5788 508.421 62.0004 523.843 77.4669 533.325 95.7353 540.43 113.398 547.289 133.55 551.974 163.093 553.319 192.703 554.664 202.14 555 277.5 555 352.882 555 362.319 554.686 391.907 553.319 421.45 551.974 441.624 547.289 459.265 540.43 477.511 533.325 492.977 523.843 508.421 508.421 523.843 493 533.325 477.511 540.43 459.265 547.289 441.624 551.996 421.45 553.319 391.907 554.664 362.297 554.978 352.86 554.978 277.5 554.978 202.14 554.664 192.681 553.319 163.093 551.974 133.55 547.289 113.376 540.43 95.7353 533.325 77.4893 523.843 62.0228 508.421 46.5788 493 31.1571 477.511 21.6531 459.287 14.5699 441.624 7.71082 421.45 3.00363 391.93 1.68114 362.341 0.336228 352.882 0 277.522 0 202.14 0 192.703 0.313813 163.093 1.68114" fill="#FFFFFF" fill-rule="nonzero" fill-opacity="1" transform="matrix(1 0 0 1.0018 68 82)"/></g></g></g></g></g></svg>