<svg width="556" height="531" xmlns="http://www.w3.org/2000/svg" xmlns:xlink="http://www.w3.org/1999/xlink" xml:space="preserve" overflow="hidden"><defs><clipPath id="clip0"><rect x="656" y="94" width="556" height="531"/></clipPath><clipPath id="clip1"><rect x="656" y="94" width="556" height="531"/></clipPath><clipPath id="clip2"><rect x="657" y="95" width="555" height="530"/></clipPath><clipPath id="clip3"><rect x="657" y="95" width="555" height="530"/></clipPath><clipPath id="clip4"><rect x="657" y="95" width="555" height="530"/></clipPath></defs><g clip-path="url(#clip0)" transform="translate(-656 -94)"><g clip-path="url(#clip1)"><g clip-path="url(#clip2)"><g clip-path="url(#clip3)"><g clip-path="url(#clip4)"><path d="M0 64.2423C0 46.3969 6.24596 31.6747 18.7373 20.0757 31.2287 8.47624 47.4681 2.67676 67.4544 2.67676 87.0842 2.67676 102.966 8.38684 115.101 19.808 127.592 31.5858 133.838 46.9322 133.838 65.8484 133.838 82.9797 127.771 97.2554 115.636 108.677 103.145 120.454 86.7271 126.343 66.3837 126.343L65.8484 126.343C46.2186 126.343 30.3368 120.454 18.202 108.677 6.06715 96.8988 0 82.0872 0 64.2423ZM6.95958 532.676 6.95958 175.06 125.808 175.06 125.808 532.676 6.95958 532.676ZM191.656 532.676 310.505 532.676 310.505 332.989C310.505 320.497 311.932 310.861 314.787 304.08 319.784 291.945 327.368 281.684 337.54 273.298 347.712 264.91 360.471 260.717 375.818 260.717 415.791 260.717 435.777 287.663 435.777 341.555L435.777 532.676 554.625 532.676 554.625 327.636C554.625 274.814 542.136 234.752 517.151 207.449 492.167 180.146 459.154 166.495 418.11 166.495 372.07 166.495 336.201 186.303 310.505 225.919L310.505 226.99 309.969 226.99 310.505 225.919 310.505 175.06 191.656 175.06C192.37 186.481 192.727 221.993 192.727 281.595 192.727 341.198 192.37 424.891 191.656 532.676Z" fill="#FFFFFF" fill-rule="nonzero" fill-opacity="1" transform="matrix(1.00068 0 0 1 657 92.3237)"/></g></g></g></g></g></svg>